<?xml version="1.0" encoding="UTF-8"?>
<svg width="946px" height="113px" viewBox="0 0 946 113" version="1.1" xmlns="http://www.w3.org/2000/svg" xmlns:xlink="http://www.w3.org/1999/xlink">
    <title>Combined Shape Copy</title>
    <g id="Logos" stroke="none" stroke-width="1" fill="none" fill-rule="evenodd">
        <g id="Half-lined-W" transform="translate(-167.000000, -264.000000)" fill="#020202" fill-rule="nonzero">
            <path d="M1006.09838,373.275828 C1000.67434,375.130171 994.56372,376.127024 987.880552,376.127024 C982.218698,376.127024 977.168176,375.349907 972.782111,373.857938 Z M339.723221,374.90868 C336.923103,375.610716 333.900903,375.967223 330.663939,375.967223 C327.878155,375.967223 325.270078,375.712623 322.881023,375.201894 Z M630.459004,369.834027 C622.679191,373.828926 612.915166,375.967223 601.568246,375.967223 C591.366897,375.967223 582.769074,374.252341 576.204349,370.781005 Z M446.002,373.052 L446.018624,373.410407 C443.24874,374.209412 438.507978,375.48782 432.329007,375.754155 C426.110675,376.019895 420.923473,375.278075 416.881062,373.562008 L446.002,373.052 Z M886.06978,375.371918 C884.505117,375.621199 882.866703,375.754155 881.155112,375.754155 C879.826168,375.754155 878.528773,375.677863 877.267284,375.525468 Z M727.577099,368.138323 C723.501532,370.908385 718.768603,373.027364 713.468823,374.384638 L687.28646,374.841819 C682.410967,373.672627 678.231755,371.722428 674.807562,369.060066 Z M1069.169,372.175 L1068.77149,374.582281 L1042.72393,374.582281 L1043.048,372.631 L1069.169,372.175 Z M488.296,372.314 L487.918098,374.582281 L461.870538,374.582281 L462.171,372.77 L488.296,372.314 Z M541.507,371.385 L540.972025,374.582281 L514.924464,374.582281 L515.383,371.841 L541.507,371.385 Z M379.839,374.207 L379.776108,374.582281 L358.372,374.582 L379.839,374.207 Z M193.758,367.455 L192.75,373.473 L167,373.922 L167.998,367.905 L193.758,367.455 Z M781.252,367.2 L780.249,373.218 L754.126,373.674 L755.129,367.656 L781.252,367.2 Z M240.305,366.643 L236.908,372.702 L219.689,373.003 L218.333,367.026 L240.305,366.643 Z M834.308,366.274 L833.3,372.292 L807.174,372.748 L808.176,366.73 L834.308,366.274 Z M290.333,365.77 L289.334,371.787 L263.586,372.236 L264.585,366.219 L290.333,365.77 Z M903.876506,365.060741 C902.002675,367.344247 899.725478,369.450921 897.051846,371.179818 L866.378452,371.715087 C864.014541,370.184101 861.937195,368.219408 860.206403,365.823617 Z M355.493888,364.633075 C353.626853,367.046173 351.482744,369.088125 349.070695,370.745227 L313.992542,371.35736 C311.913037,369.788856 310.267824,367.818147 309.137156,365.44226 Z M932.57,364.559 L931.571,370.576 L905.724,371.027 L906.739,365.01 L932.57,364.559 Z M381.52,364.178 L380.511,370.195 L355.939,370.624 L356.951,364.607 L381.52,364.178 Z M1022.60576,362.987993 C1020.37021,365.310655 1017.81478,367.366389 1014.96703,369.121545 L964.991493,369.994621 C962.596712,368.34156 960.531802,366.370725 958.813969,364.10228 Z M445.549,363.06 L445.821,369.055 L411.085591,369.66339 C409.505491,368.009359 408.341444,366.026855 407.616372,363.722598 L445.549,363.06 Z M489.968,362.285 L488.965,368.302 L462.837,368.758 L463.836,362.741 L489.968,362.285 Z M1070.829,362.146 L1069.833,368.163 L1043.717,368.619 L1044.72,362.601 L1070.829,362.146 Z M543.187,361.356 L542.179,367.373 L516.056,367.829 L517.064,361.812 L543.187,361.356 Z M643.128491,359.612082 C641.34755,361.86498 639.280638,363.90532 636.945959,365.720326 L570.509766,366.880134 C568.560806,365.157142 566.915598,363.186573 565.596617,360.966252 Z M737.757693,357.961032 C736.275433,360.163831 734.56215,362.199791 732.633378,364.049925 L670.724955,365.130608 C669.232391,363.350352 667.97033,361.368841 666.948191,359.197117 Z M195.607,356.423 L194.431,363.443 L168.664,363.893 L169.83,356.873 L195.607,356.423 Z M782.924,357.171 L781.921,363.189 L755.798,363.644 L756.801,357.627 L782.924,357.171 Z M246.533,355.534 L242.57,362.603 L217.429,363.042 L215.848,356.07 L246.533,355.534 Z M835.988,356.245 L834.98,362.262 L808.844,362.719 L809.846,356.701 L835.988,356.245 Z M292.165,354.738 L290.999,361.758 L265.252,362.207 L266.418,355.187 L292.165,354.738 Z M934.235,354.53 L933.236,360.547 L857.857025,361.864313 C856.983137,360.05277 856.263604,358.065191 855.714151,355.902259 L891.162466,355.281903 C891.887884,355.399486 892.65373,355.45943 893.459788,355.45943 C894.434875,355.45943 895.38461,355.369292 896.306329,355.193129 L934.235,354.53 Z M383.369,353.146 L382.192,360.166 L307.814049,361.465084 C307.376512,359.364249 307.253518,357.033217 307.47924,354.470722 L332.82678,354.028881 C333.737987,357.197148 336.979131,358.921784 341.63694,358.921784 C346.604061,358.921784 351.320552,356.955312 354.591767,353.648686 L383.369,353.146 Z M1029.54224,352.866427 C1028.54302,355.00986 1027.35625,357.034946 1025.99251,358.928764 L956.324253,360.144783 C955.372304,358.301755 954.601413,356.313111 954.017811,354.186152 L980.985173,353.715094 C983.310056,356.068458 986.856486,357.323775 991.502707,357.323775 C996.159645,357.323775 1000.38746,355.960671 1003.5432,353.321348 Z M433.778334,352.266665 C434.351677,354.534865 436.298383,355.406163 439.306983,355.406163 C441.224595,355.406163 443.941211,354.820226 445.166352,354.607158 L445.166352,354.607158 L445.368,359.063 L406.831918,359.736656 C406.632863,357.606472 406.725932,355.270339 407.123065,352.731756 Z M491.806,351.253 L490.636,358.273 L464.502,358.729 L465.667,351.709 L491.806,351.253 Z M1072.488,352.117 L1071.493,358.134 L1045.389,358.59 L1046.391,352.572 L1072.488,352.117 Z M545.035,350.324 L543.859,357.344 L517.737,357.8 L518.913,350.78 L545.035,350.324 Z M649.016264,348.510414 C648.211433,351.015093 647.16406,353.369116 645.8866,355.563739 L563.691047,356.999329 C562.881269,354.859593 562.319531,352.536128 562.01991,350.027572 L590.74375,349.526989 C593.738914,352.610359 598.627316,354.181022 604.8708,354.181022 C611.841196,354.181022 617.231208,352.21683 620.438204,349.008665 Z M689.130551,347.808354 C689.687014,350.787992 691.082762,353.124616 693.25466,354.736677 L665.411645,355.222081 C664.737751,353.047154 664.267246,350.71989 664.007236,348.248619 Z M718.20135,348.960856 L741.958429,349.653327 C741.427604,351.124054 740.814855,352.54714 740.123114,353.919004 L713.197096,354.388104 C715.260462,353.033056 716.974277,351.217793 718.20135,348.960856 L718.20135,348.960856 Z M784.762,346.139 L783.592,353.159 L757.469,353.615 L758.639,346.595 L784.762,346.139 Z M197.792,343.385 L196.279,352.411 L170.496,352.861 L171.994,343.835 L197.792,343.385 Z M837.836,345.213 L836.66,352.233 L810.513,352.689 L811.682,345.669 L837.836,345.213 Z M253.894,342.406 L248.798,351.494 L214.944,352.085 L212.911,343.121 L253.894,342.406 Z M881.832549,344.446216 C882.255291,347.25704 883.154715,349.604065 884.522495,351.39926 L854.925953,351.914935 C854.608597,349.733112 854.443404,347.402821 854.442667,344.924595 Z M294.329,341.7 L292.831,350.726 L267.085,351.175 L268.584,342.149 L294.329,341.7 Z M936.066,343.498 L934.901,350.518 L904.142235,351.055636 C906.093226,349.205567 907.774469,346.81559 909.132343,343.968468 L936.066,343.498 Z M347.409297,340.773734 C346.893397,340.859151 346.388065,340.942447 345.8983,341.024074 C338.512257,342.101206 333.842673,345.055163 332.793167,350.028624 L308.081754,350.459801 C308.807622,346.994671 309.986107,343.993232 311.540771,341.398988 Z M977.850026,342.769961 C977.618026,345.437772 977.861133,347.777632 978.553929,349.756714 L953.169482,350.200421 C952.826229,347.99233 952.660484,345.659796 952.677828,343.20936 Z M385.554,340.108 L384.041,349.134 L357.501072,349.597691 C358.082775,348.426032 358.517802,347.16709 358.779999,345.83458 L358.842179,345.498502 L359.62,340.56 L385.554,340.108 Z M1007.10994,348.960856 L1013.495,349.146 L1006.942,349.261 L1007.10994,348.960856 Z M435.363,339.238 L433.865,348.264 L407.793,348.719 L409.291,339.693 L435.363,339.238 Z M1074.314,341.085 L1073.152,348.105 L1047.06,348.56 L1048.23,341.54 L1074.314,341.085 Z M493.979,338.215 L492.475,347.241 L466.333,347.697 L467.832,338.671 L493.979,338.215 Z M547.219,337.286 L545.707,346.312 L519.586,346.768 L521.098,337.742 L547.219,337.286 Z M587.559027,338.254191 C587.231928,341.055866 587.485775,343.496823 588.254675,345.569965 L561.767753,346.03197 C561.742664,343.591671 561.937855,340.999414 562.363738,338.254191 L562.363738,338.254191 Z M650.798716,335.477935 C650.948029,337.813112 650.805096,340.300224 650.360813,342.941686 C650.273601,343.46362 650.177094,343.980215 650.071382,344.491407 L623.075185,344.96167 C623.323527,344.296122 623.506296,343.603959 623.620782,342.888419 C624.110493,340.072582 623.317087,337.842026 621.194001,335.994971 Z M744.775,333.837 L743.822774,339.958734 L689.330639,339.958734 L689.170838,340.91754 C689.010733,341.92465 688.912222,342.890697 688.874138,343.814177 L663.772994,344.251824 C663.732026,341.409221 663.943277,338.402195 664.415827,335.24139 L744.775,333.837 Z M786.935,333.101 L785.431,342.127 L759.308,342.583 L760.812,333.557 L786.935,333.101 Z M840.02,332.175 L838.508,341.201 L812.35,341.657 L813.853,332.631 L840.02,332.175 Z M882.583218,331.432478 C882.42951,332.163142 882.290735,332.910305 882.167185,333.673229 C881.756872,336.096029 881.552608,338.362949 881.552094,340.44967 L854.577861,340.920352 C854.729355,338.633682 855.009767,336.235614 855.427154,333.726496 C855.52946,333.110382 855.637613,332.501424 855.751482,331.899598 Z M938.231,330.46 L936.733,339.486 L910.736076,339.940487 C911.33154,338.127178 911.817928,336.181658 912.185793,334.118512 L912.263037,333.673229 C912.417917,332.725061 912.540382,331.802611 912.630849,330.906999 L938.231,330.46 Z M217.652954,265.491476 L234.165722,333.034025 L235.44413,333.034025 L274.329036,265.491476 L306.981704,265.491476 L294.995,337.688 L269.251,338.137 L274.329036,307.572402 L273.423497,307.572402 L256.159,338.366 L212.007,339.137 L204.762341,307.199533 L203.856802,307.199533 L198.464,339.373 L172.66,339.823 L185.000286,265.491476 L217.652954,265.491476 Z M1034.34979,328.782661 C1034.2114,330.29873 1034.00992,331.858095 1033.74343,333.460161 L1033.74343,333.460161 L1033.066,337.805 L952.861246,339.206057 C952.980782,337.764356 953.158692,336.286753 953.395958,334.774396 L953.52334,333.992831 C953.737941,332.699791 953.990362,331.428639 954.279457,330.180505 Z M1076.61147,328.044709 C1076.41658,328.729712 1076.25275,329.434424 1076.12234,330.157607 L1076.12234,330.157607 L1074.978,337.073 L1048.899,337.528 L1050.403,328.502 Z M357.403971,291.698837 C378.071565,291.698837 391.97425,301.659765 389.097832,318.971538 L389.097832,318.971538 L386.227,336.096 L314.554007,337.34679 C320.99236,330.286665 331.023325,327.277033 341.933173,326.312094 L342.435945,326.269117 C356.551699,325.043976 362.198,323.925369 363.103539,318.971538 L363.103539,318.971538 L363.103539,318.705204 C363.955811,313.218703 360.546723,310.129217 354.154684,310.129217 C347.336509,310.129217 342.276144,313.27197 340.358532,318.545403 L340.358532,318.545403 L316.494919,317.693131 C320.969346,302.778372 335.351435,291.698837 357.403971,291.698837 Z M446.338226,273.161923 L443.08894,292.764177 L457.897164,292.764177 L454.647877,311.940295 L439.89292,311.940295 L436.028,335.226 L409.957,335.681 L413.898626,311.940295 L403.03216,311.940295 L406.281446,292.764177 L417.041379,292.764177 L420.290666,273.161923 L446.338226,273.161923 Z M505.176604,265.491476 L498.251895,307.78547 L499.157434,307.78547 C504.430866,297.718008 514.072193,291.698837 526.430135,291.698837 C543.528841,291.698837 552.797298,303.896979 549.707812,322.433893 L549.707812,322.433893 L547.891,333.274 L521.771,333.73 L522.80798,327.547525 C524.22775,318.555646 520.404617,313.197463 512.312226,313.061551 L511.99478,313.058902 C503.738396,313.058902 497.239822,318.59867 495.695079,327.920394 L495.695079,327.920394 L494.648,334.203 L468.498,334.659 L479.981316,265.491476 L505.176604,265.491476 Z M620.158427,264 C645.513517,264 659.522737,277.742885 656.220183,298.410479 L656.220183,298.410479 L630.971627,298.410479 C631.504297,290.420429 626.763535,285.786201 616.483005,285.786201 C606.255742,285.786201 600.502906,290.04756 599.437567,296.066731 C598.052625,302.45877 603.911994,305.867858 613.500053,307.998538 L613.500053,307.998538 L622.448908,310.129217 C638.125643,313.684765 647.764896,320.703437 650.227596,331.487436 L613.322213,332.131999 C611.766126,331.643944 610.032808,331.184264 608.120087,330.743544 L608.120087,330.743544 L597.200353,328.080195 C579.142842,323.712301 569.128647,314.443844 571.791996,297.877809 C575.147817,277.529817 595.176207,264 620.158427,264 Z M712.235446,291.698837 C734.392133,291.698837 748.016028,305.22525 745.336652,329.826675 L665.138283,331.226807 C670.211588,307.413344 688.480891,291.698837 712.235446,291.698837 Z M818.374944,291.698837 C835.526916,291.698837 844.742106,303.950246 841.65262,322.433893 L841.65262,322.433893 L840.692,328.163 L814.52,328.619 L814.699521,327.547525 C816.171876,318.60823 812.453237,313.198811 804.312272,313.061577 L803.992855,313.058902 C795.789738,313.058902 789.344432,318.59867 787.799689,327.920394 L787.799689,327.920394 L787.604,329.089 L761.481,329.545 L767.611498,292.764177 L792.38065,292.764177 L789.930369,307.78547 L790.835908,307.78547 C795.949539,297.771275 806.230069,291.698837 818.374944,291.698837 Z M949.017263,265.491476 L938.897,326.448 L912.822097,326.904335 C912.723673,317.691779 908.559501,312.188169 900.947076,312.049513 L900.650832,312.046829 C892.597204,312.046829 886.638928,317.891759 883.631075,327.413402 L856.619972,327.885717 C862.69024,303.075822 879.047452,291.698837 894.897997,291.698837 C907.841876,291.698837 913.701246,299.26275 915.565591,306.773397 L915.565591,306.773397 L916.09826,306.773397 L922.969703,265.491476 L949.017263,265.491476 Z M1001.14403,291.698837 C1021.73495,291.698837 1034.95645,303.38103 1034.57177,324.77786 L955.360733,326.160845 C961.807499,305.209968 979.117691,291.698837 1001.14403,291.698837 Z M709.838432,310.502086 C701.422247,310.502086 693.964867,316.734325 692.100522,324.830908 L692.100522,324.830908 L722.036573,324.830908 C723.368248,316.46799 718.361151,310.502086 709.838432,310.502086 Z M998.747019,310.502086 C990.330833,310.502086 982.873454,316.734325 981.009109,324.830908 L981.009109,324.830908 L1010.94516,324.830908 C1012.27684,316.46799 1007.26974,310.502086 998.747019,310.502086 Z M1101.79703,291.64557 C1105.95186,291.64557 1109.84035,292.71091 1112.61023,294.628522 L1112.61023,294.628522 L1101.5307,315.988587 C1099.40002,314.976514 1096.89647,314.017708 1093.80698,314.017708 C1087.56752,314.017708 1081.48622,317.813745 1078.22028,324.016284 L1051.072,324.49 L1056.36028,292.764177 L1081.66211,292.764177 L1079.15856,307.678936 L1080.01083,307.678936 C1084.85813,296.865736 1092.68837,291.64557 1101.79703,291.64557 Z" id="Combined-Shape-Copy"></path>
        </g>
    </g>
</svg>